<?xml version="1.0" encoding="utf-8"?>
<!-- Svg Vector Icons : http://www.onlinewebfonts.com/icon -->
<!DOCTYPE svg PUBLIC "-//W3C//DTD SVG 1.1//EN" "http://www.w3.org/Graphics/SVG/1.1/DTD/svg11.dtd">
<svg version="1.1" xmlns="http://www.w3.org/2000/svg" xmlns:xlink="http://www.w3.org/1999/xlink" x="0px" y="0px" viewBox="0 0 256 256" enable-background="new 0 0 256 256" xml:space="preserve">
<metadata> Svg Vector Icons : http://www.onlinewebfonts.com/icon </metadata>
<g><g><g><path fill="#000000" d="M52.4,93v25.8H31.2H10v9.2v9.2h21.2h21.2V163c0,14.2,0.2,25.8,0.4,25.8c0.2,0,19.1-11.6,42.1-25.8c22.9-14.2,42.1-26,42.5-26.2c0.5-0.2,1.2,0.7,1.8,2.2c1.7,3.7,6.1,8.2,10.1,10.3c11.6,6.1,25.1,2.8,32.3-8.2l2.6-3.9h30.9H246V128v-9.2h-30.9h-30.9l-2.5-3.8c-2.8-4.4-7.9-8.5-12.7-10.1c-2.1-0.7-5-1.1-8.5-1.1c-4.8,0-5.6,0.2-9.9,2.3c-5.1,2.5-9.4,6.6-11.4,10.9c-0.6,1.4-1.4,2.3-1.9,2.2c-0.4-0.1-19.5-11.9-42.5-26.1C72,78.8,53,67.2,52.8,67.2C52.6,67.2,52.4,78.8,52.4,93z M165.8,117.5c4,1.8,7.1,6.4,7.1,10.5c0,2.2-1.4,5.7-3.1,7.7c-5.4,6.1-15.5,4.8-19-2.5C145.9,123.3,155.9,112.9,165.8,117.5z"/></g></g></g>
</svg>