<?xml version="1.0" encoding="utf-8"?>
<!-- Svg Vector Icons : http://www.onlinewebfonts.com/icon -->
<!DOCTYPE svg PUBLIC "-//W3C//DTD SVG 1.1//EN" "http://www.w3.org/Graphics/SVG/1.1/DTD/svg11.dtd">
<svg version="1.1" xmlns="http://www.w3.org/2000/svg" xmlns:xlink="http://www.w3.org/1999/xlink" x="0px" y="0px" viewBox="0 0 256 256" enable-background="new 0 0 256 256" xml:space="preserve">
<metadata> Svg Vector Icons : http://www.onlinewebfonts.com/icon </metadata>
<g><g><g><path fill="#000000" d="M59.1,68.1c-1.5,0.1-2.7,0.4-2.7,0.6c0,0.2,1.4,2.8,3.1,5.8c19.5,34.1,20,67.3,1.5,104.1c-2.6,5-4.6,9.3-4.6,9.5c0,0.1,6,0.1,13.4-0.1c47.3-1.4,89.1-12,114.5-28.9c12.5-8.3,21.5-18.8,24.3-28.2l0.8-2.6l18.3-0.2l18.3-0.1v-5v-5l-18.3-0.1l-18.3-0.2l-1.2-3.5c-1.6-4.6-6.2-11.2-10.6-15.3c-16.2-14.9-45.8-25.3-84.7-29.6C104.1,68.2,65.4,67.4,59.1,68.1z M110.7,78.9c39.1,4.3,67.5,14.2,81.6,28.5c10.7,10.9,9.9,22.2-2.2,34.3c-16.3,16.3-49.2,28.9-88.5,33.8c-10.5,1.3-28.2,2.8-28.6,2.4c-0.2-0.1,0.7-2.5,1.8-5.2c7.5-17.6,10.9-37.3,9.4-54c-1.3-12.9-4.4-25-9.4-35.9c-1.1-2.5-2.1-4.8-2.1-5C72.8,77.3,104,78.2,110.7,78.9z"/><path fill="#000000" d="M42.3,72.9c-2.1,1.1-3.8,2.3-3.7,2.6c0,0.3,1.6,3.9,3.6,7.9c1.9,4,3.6,7.5,3.6,7.7c0,0.2-8,0.4-17.9,0.4H10v5v5h19.6h19.7l1,4.6c3.2,14.6,2.9,31.7-0.8,45.5l-0.7,2.6H29.5H10v5v5h17.9h17.8l-2.1,4.8c-1.1,2.7-2.8,6.4-3.8,8.3c-1.9,3.8-2.2,3.4,3.5,6.3l3.5,1.8l3.5-7.3c13.7-28.7,15.9-57.1,6.6-85.2c-2-6.1-9.5-22.3-10.4-22.3C46.3,70.8,44.4,71.7,42.3,72.9z"/></g></g></g>
</svg>